mtllib Eboard.mtl
g objMesh
v -0.136554 0.112137 3.444246
v 0.136554 0.112137 3.444246
v 0.136554 3.274439 3.444246
v -0.136554 3.274439 3.444246
v 0.136554 3.313747 -3.296107
v 0.136554 3.313687 -3.295985
v 0.136554 3.274439 -3.444246
v 0.136554 0.112137 -3.444246
v 0.136554 0.072889 -3.295985
v 0.136554 0.072829 -3.296107
v 0.048644 3.313687 3.295985
v 0.136554 3.313687 3.295985
v 0.136554 0.072889 3.295985
v 0.048644 0.072889 3.295985
v 0.136554 3.386576 3.216153
v 0.136554 3.386576 -3.216153
v -0.136554 3.386576 -3.216153
v -0.136554 3.386576 3.216153
v -0.136554 0.063482 -3.421658
v -0.136554 0.042220 -3.394483
v -0.136554 0.112137 -3.444246
v -0.136554 0.087184 -3.438527
v -0.136554 0.024465 -3.358366
v -0.136554 0.000000 -3.216153
v -0.136554 0.002811 -3.266909
v -0.136554 0.011105 -3.315119
v -0.136554 3.299392 -3.438527
v -0.136554 3.274439 -3.444246
v -0.136554 3.323094 -3.421658
v -0.136554 3.344356 -3.394483
v -0.136554 3.362111 -3.358366
v -0.136554 3.375471 -3.315119
v -0.136554 3.383765 -3.266909
v -0.136554 0.000000 3.216153
v -0.136554 0.002811 3.266909
v -0.136554 0.011105 3.315119
v -0.136554 0.024465 3.358366
v -0.136554 0.042220 3.394483
v -0.136554 0.063482 3.421658
v -0.136554 0.087184 3.438527
v -0.136554 3.362111 3.358366
v -0.136554 3.375471 3.315119
v -0.136554 3.383765 3.266909
v -0.136554 3.299392 3.438527
v -0.136554 3.323094 3.421658
v -0.136554 3.344356 3.394483
v 0.136554 3.313747 3.296107
v 0.136554 0.072829 3.296107
v 0.136554 0.000000 -3.216153
v 0.136554 0.000000 3.216153
v 0.048644 0.072889 -3.295985
v 0.048644 3.313687 -3.295985
v 0.136554 3.299392 -3.438527
v 0.136554 3.323094 -3.421658
v 0.136554 3.344356 -3.394483
v 0.136554 3.362111 -3.358366
v 0.136554 3.375471 -3.315119
v 0.136554 3.383765 -3.266909
v 0.136554 0.002811 -3.266909
v 0.136554 0.011105 -3.315119
v 0.136554 0.024465 -3.358366
v 0.136554 0.042220 -3.394483
v 0.136554 0.063482 -3.421658
v 0.136554 0.087184 -3.438527
v 0.136554 0.087184 3.438527
v 0.136554 0.063482 3.421658
v 0.136554 0.042220 3.394483
v 0.136554 0.024465 3.358366
v 0.136554 0.011105 3.315119
v 0.136554 0.002811 3.266909
v 0.136554 3.383765 3.266909
v 0.136554 3.375471 3.315119
v 0.136554 3.362111 3.358366
v 0.136554 3.344356 3.394483
v 0.136554 3.323094 3.421658
v 0.136554 3.299392 3.438527
vt 0.026203 0.577923
vt 0.049874 0.582206
vt 0.042657 0.883415
vt 0.018336 0.879530
vt 0.580423 0.775094
vt 0.580370 0.775084
vt 0.594369 0.763615
vt 0.625807 0.528984
vt 0.618815 0.533685
vt 0.618817 0.533637
vt 0.654363 0.049991
vt 0.659538 0.041872
vt 0.994729 0.093834
vt 0.987254 0.096814
vt 0.125105 0.996105
vt 0.555944 0.733387
vt 0.551435 0.698342
vt 0.572027 0.177428
vt 0.004200 0.123029
vt 0.023745 0.041727
vt 0.635453 0.475170
vt 0.632986 0.477325
vt 0.637663 0.470092
vt 0.637070 0.472784
vt 0.629786 0.479229
vt 0.617212 0.482897
vt 0.621729 0.482061
vt 0.625981 0.480825
vt 0.572027 0.177428
vt 0.593214 0.182889
vt 0.595241 0.183856
vt 0.590262 0.182685
vt 0.586639 0.183046
vt 0.582674 0.183356
vt 0.578716 0.182874
vt 0.575075 0.180973
vt 0.004200 0.123029
vt 0.602165 0.924224
vt 0.614612 0.932568
vt 0.611866 0.931985
vt 0.609272 0.931160
vt 0.606939 0.930115
vt 0.604963 0.928886
vt 0.603430 0.927507
vt 0.602486 0.925918
vt 0.627857 0.727897
vt 0.635721 0.720570
vt 0.638230 0.720138
vt 0.640445 0.720766
vt 0.642146 0.722572
vt 0.629073 0.725595
vt 0.630908 0.723471
vt 0.633195 0.721779
vt 0.027163 0.469756
vt 0.625807 0.528984
vt 0.643618 0.514233
vt 0.615490 0.749132
vt 0.594369 0.763615
vt 0.679534 0.640672
vt 0.679558 0.640652
vt 0.663503 0.676297
vt 0.940616 0.864596
vt 0.555944 0.733387
vt 0.125105 0.996105
vt 0.062309 0.580162
vt 0.062338 0.580201
vt 0.049874 0.582206
vt 0.042657 0.883415
vt 0.055801 0.891590
vt 0.055768 0.891620
vt 0.609726 0.528179
vt 0.067437 0.573363
vt 0.987254 0.096814
vt 0.957169 0.698484
vt 0.671476 0.631703
vt 0.654363 0.049991
vt 0.065959 0.586641
vt 0.062338 0.580201
vt 0.618815 0.533685
vt 0.617223 0.540867
vt 0.320113 0.531777
vt 0.320170 0.512581
vt 0.600116 0.522182
vt 0.593382 0.071187
vt 0.654363 0.049991
vt 0.671476 0.631703
vt 0.617223 0.540867
vt 0.618815 0.533685
vt 0.580370 0.775084
vt 0.591180 0.809009
vt 0.593526 0.762807
vt 0.655060 0.725619
vt 0.655627 0.726483
vt 0.650551 0.736850
vt 0.658788 0.728884
vt 0.666433 0.732402
vt 0.578017 0.750733
vt 0.572638 0.748909
vt 0.565200 0.742938
vt 0.613575 0.527783
vt 0.617085 0.527283
vt 0.619850 0.526581
vt 0.622047 0.526231
vt 0.623748 0.526486
vt 0.624883 0.527381
vt 0.050270 0.580440
vt 0.051381 0.578657
vt 0.053243 0.576746
vt 0.056055 0.575589
vt 0.059567 0.574605
vt 0.063453 0.573787
vt 0.663941 0.671007
vt 0.662259 0.669008
vt 0.657863 0.671271
vt 0.047704 0.893390
vt 0.045041 0.890688
vt 0.043175 0.888072
vt 0.042584 0.885607
vt 0.625594 0.508078
vt 0.619939 0.509094
vt 0.617212 0.482897
vt 0.621729 0.482061
vt 0.630960 0.506773
vt 0.625594 0.508078
vt 0.621729 0.482061
vt 0.625981 0.480825
vt 0.635793 0.505212
vt 0.630960 0.506773
vt 0.625981 0.480825
vt 0.629786 0.479229
vt 0.639889 0.503480
vt 0.635793 0.505212
vt 0.629786 0.479229
vt 0.632986 0.477325
vt 0.643119 0.501683
vt 0.639889 0.503480
vt 0.632986 0.477325
vt 0.635453 0.475170
vt 0.645487 0.499935
vt 0.643119 0.501683
vt 0.635453 0.475170
vt 0.637070 0.472784
vt 0.625807 0.528984
vt 0.624883 0.527381
vt 0.642199 0.512449
vt 0.643618 0.514233
vt 0.555740 0.698378
vt 0.551435 0.698342
vt 0.555944 0.733387
vt 0.565200 0.742938
vt 0.559263 0.697006
vt 0.555740 0.698378
vt 0.565200 0.742938
vt 0.572638 0.748909
vt 0.561996 0.694555
vt 0.559263 0.697006
vt 0.572638 0.748909
vt 0.578017 0.750733
vt 0.564184 0.691619
vt 0.561996 0.694555
vt 0.578017 0.750733
vt 0.578751 0.744362
vt 0.566130 0.688889
vt 0.564184 0.691619
vt 0.578751 0.744362
vt 0.580468 0.741116
vt 0.379553 0.537549
vt 0.379453 0.540213
vt 0.351846 0.538874
vt 0.655627 0.726483
vt 0.655060 0.725619
vt 0.656724 0.708385
vt 0.615490 0.749132
vt 0.616464 0.751220
vt 0.593526 0.762807
vt 0.594369 0.763615
vt 0.022557 0.469698
vt 0.027163 0.469756
vt 0.029149 0.496229
vt 0.023577 0.496197
vt 0.018119 0.469201
vt 0.022557 0.469698
vt 0.023577 0.496197
vt 0.018268 0.495789
vt 0.014030 0.468267
vt 0.018119 0.469201
vt 0.018268 0.495789
vt 0.013496 0.495010
vt 0.604963 0.928886
vt 0.606939 0.930115
vt 0.603438 0.946038
vt 0.601168 0.944930
vt 0.603430 0.927507
vt 0.604963 0.928886
vt 0.601168 0.944930
vt 0.053243 0.576746
vt 0.051381 0.578657
vt 0.028451 0.573048
vt 0.027057 0.575491
vt 0.028451 0.573048
vt 0.051381 0.578657
vt 0.050270 0.580440
vt 0.026203 0.577923
vt 0.027057 0.575491
vt 0.050270 0.580440
vt 0.049874 0.582206
vt 0.663941 0.671007
vt 0.663503 0.676297
vt 0.642146 0.722572
vt 0.640445 0.720766
vt 0.662259 0.669008
vt 0.663941 0.671007
vt 0.640445 0.720766
vt 0.638230 0.720138
vt 0.657863 0.671271
vt 0.662259 0.669008
vt 0.638230 0.720138
vt 0.635721 0.720570
vt 0.654241 0.673133
vt 0.657863 0.671271
vt 0.635721 0.720570
vt 0.633195 0.721779
vt 0.651842 0.673969
vt 0.654241 0.673133
vt 0.633195 0.721779
vt 0.630908 0.723471
vt 0.042584 0.885607
vt 0.043175 0.888072
vt 0.018062 0.884556
vt 0.018070 0.881901
vt 0.042657 0.883415
vt 0.042584 0.885607
vt 0.018070 0.881901
vt 0.018336 0.879530
vt 0.027163 0.469756
vt 0.617212 0.482897
vt 0.619939 0.509094
vt 0.029149 0.496229
vn 0.000000 0.000000 1.000000
vn 0.000000 0.000000 1.000000
vn 0.000000 0.000000 1.000000
vn 0.000000 0.000000 1.000000
vn 1.000000 0.000000 0.000000
vn 1.000000 0.000000 0.000000
vn 1.000000 0.000000 0.000000
vn 1.000000 0.000000 0.000000
vn 1.000000 0.000000 0.000000
vn 1.000000 0.000000 0.000000
vn 0.000000 0.000000 -1.000000
vn 0.000000 0.000000 -1.000000
vn 0.000000 0.000000 -1.000000
vn 0.000000 0.000000 -1.000000
vn 0.000000 1.000000 0.000000
vn 0.000000 1.000000 0.000000
vn 0.000000 1.000000 0.000000
vn 0.000000 1.000000 0.000000
vn 0.000000 1.000000 0.000000
vn 0.000000 1.000000 0.000000
vn -1.000000 0.000000 0.000000
vn -1.000000 0.000000 0.000000
vn -1.000000 0.000000 0.000000
vn -1.000000 0.000000 0.000000
vn -1.000000 0.000000 0.000000
vn -1.000000 0.000000 0.000000
vn -1.000000 0.000000 0.000000
vn -1.000000 0.000000 0.000000
vn -1.000000 0.000000 0.000000
vn -1.000000 0.000000 0.000000
vn -1.000000 0.000000 0.000000
vn -1.000000 0.000000 0.000000
vn -1.000000 0.000000 0.000000
vn -1.000000 0.000000 0.000000
vn -1.000000 0.000000 0.000000
vn -1.000000 0.000000 0.000000
vn -1.000000 0.000000 0.000000
vn -1.000000 0.000000 0.000000
vn -1.000000 0.000000 0.000000
vn -1.000000 0.000000 0.000000
vn -1.000000 0.000000 0.000000
vn -1.000000 0.000000 0.000000
vn -1.000000 0.000000 0.000000
vn -1.000000 0.000000 0.000000
vn -1.000000 0.000000 0.000000
vn -1.000000 0.000000 0.000000
vn -1.000000 0.000000 0.000000
vn -1.000000 0.000000 0.000000
vn -1.000000 0.000000 0.000000
vn -1.000000 0.000000 0.000000
vn -1.000000 0.000000 0.000000
vn -1.000000 0.000000 0.000000
vn -1.000000 0.000000 0.000000
vn -1.000000 0.000000 0.000000
vn 0.000000 0.000000 -1.000000
vn 0.000000 0.000000 -1.000000
vn 0.000000 0.000000 -1.000000
vn 0.000000 0.000000 -1.000000
vn 1.000000 0.000000 0.000000
vn 1.000000 0.000000 0.000000
vn 1.000000 0.000000 0.000000
vn 1.000000 0.000000 0.000000
vn 1.000000 0.000000 0.000000
vn 1.000000 0.000000 0.000000
vn 1.000000 0.000000 0.000000
vn 1.000000 0.000000 0.000000
vn 1.000000 0.000000 0.000000
vn 1.000000 0.000000 0.000000
vn 1.000000 0.000000 0.000000
vn 1.000000 0.000000 0.000000
vn 1.000000 0.000000 0.000000
vn 1.000000 0.000000 0.000000
vn 1.000000 0.000000 0.000000
vn 1.000000 0.000000 0.000000
vn 1.000000 0.000000 0.000000
vn 1.000000 0.000000 0.000000
vn 0.000000 1.000000 0.000000
vn 0.000000 1.000000 0.000000
vn 0.000000 1.000000 0.000000
vn 0.000000 1.000000 0.000000
vn 0.000000 -1.000000 0.000000
vn 0.000000 -1.000000 0.000000
vn 0.000000 -1.000000 0.000000
vn 0.000000 -1.000000 0.000000
vn 0.000000 -1.000000 0.000000
vn 0.000000 -1.000000 0.000000
vn 0.000000 0.000000 1.000000
vn 0.000000 0.000000 1.000000
vn 0.000000 0.000000 1.000000
vn 0.000000 0.000000 1.000000
vn 1.000000 0.000000 0.000000
vn 1.000000 0.000000 0.000000
vn 1.000000 0.000000 0.000000
vn 1.000000 0.000000 0.000000
vn 1.000000 0.000000 0.000000
vn 1.000000 0.000000 0.000000
vn 1.000000 0.000000 0.000000
vn 1.000000 0.000000 0.000000
vn 1.000000 0.000000 0.000000
vn 1.000000 0.000000 0.000000
vn 1.000000 0.000000 0.000000
vn 1.000000 0.000000 0.000000
vn 1.000000 0.000000 0.000000
vn 1.000000 0.000000 0.000000
vn 1.000000 0.000000 0.000000
vn 1.000000 0.000000 0.000000
vn 1.000000 0.000000 0.000000
vn 1.000000 0.000000 0.000000
vn 1.000000 0.000000 0.000000
vn 1.000000 0.000000 0.000000
vn 1.000000 0.000000 0.000000
vn 1.000000 0.000000 0.000000
vn 1.000000 0.000000 0.000000
vn 1.000000 0.000000 0.000000
vn 1.000000 0.000000 0.000000
vn 1.000000 0.000000 0.000000
vn 1.000000 0.000000 0.000000
vn 1.000000 0.000000 0.000000
vn 0.000000 -0.996785 -0.055205
vn 0.000000 -0.996785 -0.055205
vn 0.000000 -0.996785 -0.055205
vn 0.000000 -0.996785 -0.055205
vn 0.000000 -0.983866 -0.169219
vn 0.000000 -0.983866 -0.169219
vn 0.000000 -0.983866 -0.169219
vn 0.000000 -0.983866 -0.169219
vn 0.000000 -0.953820 -0.294712
vn 0.000000 -0.953820 -0.294712
vn 0.000000 -0.953820 -0.294712
vn 0.000000 -0.953820 -0.294712
vn 0.000000 -0.895893 -0.440459
vn 0.000000 -0.895893 -0.440459
vn 0.000000 -0.895893 -0.440459
vn 0.000000 -0.895893 -0.440459
vn 0.000000 -0.786264 -0.615155
vn 0.000000 -0.786264 -0.615155
vn 0.000000 -0.786264 -0.615155
vn 0.000000 -0.786264 -0.615155
vn 0.000000 -0.578915 -0.813317
vn 0.000000 -0.578915 -0.813317
vn 0.000000 -0.578915 -0.813317
vn 0.000000 -0.578915 -0.813317
vn 0.000000 -0.223029 -0.973080
vn 0.000000 -0.223029 -0.973080
vn 0.000000 -0.223029 -0.973080
vn 0.000000 -0.223029 -0.973080
vn 0.000000 0.996785 -0.055205
vn 0.000000 0.996785 -0.055205
vn 0.000000 0.996785 -0.055205
vn 0.000000 0.996785 -0.055205
vn 0.000000 0.983866 -0.169219
vn 0.000000 0.983866 -0.169219
vn 0.000000 0.983866 -0.169219
vn 0.000000 0.983866 -0.169219
vn 0.000000 0.953820 -0.294712
vn 0.000000 0.953820 -0.294712
vn 0.000000 0.953820 -0.294712
vn 0.000000 0.953820 -0.294712
vn 0.000000 0.895893 -0.440459
vn 0.000000 0.895893 -0.440459
vn 0.000000 0.895893 -0.440459
vn 0.000000 0.895893 -0.440459
vn 0.000000 0.786264 -0.615155
vn 0.000000 0.786264 -0.615155
vn 0.000000 0.786264 -0.615155
vn 0.000000 0.786264 -0.615155
vn 0.000000 0.578915 -0.813317
vn 0.000000 0.578915 -0.813317
vn 0.000000 0.578915 -0.813317
vn 0.000000 0.578915 -0.813317
vn 0.000000 0.578915 -0.813317
vn 0.000000 0.578915 -0.813317
vn 0.000000 0.223029 -0.973080
vn 0.000000 0.223029 -0.973080
vn 0.000000 0.223029 -0.973080
vn 0.000000 0.223029 -0.973080
vn 0.000000 -0.996785 0.055205
vn 0.000000 -0.996785 0.055205
vn 0.000000 -0.996785 0.055205
vn 0.000000 -0.996785 0.055205
vn 0.000000 -0.983866 0.169219
vn 0.000000 -0.983866 0.169219
vn 0.000000 -0.983866 0.169219
vn 0.000000 -0.983866 0.169219
vn 0.000000 -0.953820 0.294712
vn 0.000000 -0.953820 0.294712
vn 0.000000 -0.953820 0.294712
vn 0.000000 -0.953820 0.294712
vn 0.000000 -0.895893 0.440459
vn 0.000000 -0.895893 0.440459
vn 0.000000 -0.895893 0.440459
vn 0.000000 -0.895893 0.440459
vn 0.000000 -0.786264 0.615155
vn 0.000000 -0.786264 0.615155
vn 0.000000 -0.786264 0.615155
vn 0.000000 -0.786264 0.615155
vn 0.000000 -0.786264 0.615155
vn 0.000000 -0.786264 0.615155
vn 0.000000 -0.578915 0.813317
vn 0.000000 -0.578915 0.813317
vn 0.000000 -0.578915 0.813317
vn 0.000000 -0.578915 0.813317
vn 0.000000 -0.223029 0.973080
vn 0.000000 -0.223029 0.973080
vn 0.000000 -0.223029 0.973080
vn 0.000000 -0.223029 0.973080
vn 0.000000 0.996785 0.055205
vn 0.000000 0.996785 0.055205
vn 0.000000 0.996785 0.055205
vn 0.000000 0.996785 0.055205
vn 0.000000 0.983866 0.169219
vn 0.000000 0.983866 0.169219
vn 0.000000 0.983866 0.169219
vn 0.000000 0.983866 0.169219
vn 0.000000 0.953820 0.294712
vn 0.000000 0.953820 0.294712
vn 0.000000 0.953820 0.294712
vn 0.000000 0.953820 0.294712
vn 0.000000 0.895893 0.440459
vn 0.000000 0.895893 0.440459
vn 0.000000 0.895893 0.440459
vn 0.000000 0.895893 0.440459
vn 0.000000 0.786264 0.615155
vn 0.000000 0.786264 0.615155
vn 0.000000 0.786264 0.615155
vn 0.000000 0.786264 0.615155
vn 0.000000 0.578915 0.813317
vn 0.000000 0.578915 0.813317
vn 0.000000 0.578915 0.813317
vn 0.000000 0.578915 0.813317
vn 0.000000 0.223029 0.973080
vn 0.000000 0.223029 0.973080
vn 0.000000 0.223029 0.973080
vn 0.000000 0.223029 0.973080
vn 0.000000 -1.000000 0.000000
vn 0.000000 -1.000000 0.000000
vn 0.000000 -1.000000 0.000000
vn 0.000000 -1.000000 0.000000
usemtl objMesh Merged Material
f 1/1/1 2/2/2 3/3/3
f 3/3/3 4/4/4 1/1/1
f 5/5/5 6/6/6 7/7/7
f 7/7/7 6/6/6 8/8/8
f 8/8/8 9/9/9 10/10/10
f 9/9/9 8/8/8 6/6/6
f 11/11/11 12/12/12 13/13/13
f 13/13/13 14/14/14 11/11/11
f 15/15/15 16/16/16 17/17/17
f 17/18/18 18/19/19 15/20/20
f 19/21/21 20/22/22 21/23/23
f 21/23/23 22/24/24 19/21/21
f 20/22/22 23/25/25 21/23/23
f 24/26/26 21/23/23 25/27/27
f 26/28/28 25/27/27 21/23/23
f 23/25/25 26/28/28 21/23/23
f 21/23/23 24/26/26 17/29/29
f 27/30/30 28/31/31 29/32/32
f 30/33/33 29/32/32 28/31/31
f 28/31/31 31/34/34 30/33/33
f 31/34/34 28/31/31 32/35/35
f 32/35/35 28/31/31 33/36/36
f 28/31/31 17/29/29 33/36/36
f 28/31/31 21/23/23 17/29/29
f 24/26/26 18/37/37 17/29/29
f 1/38/38 34/39/39 35/40/40
f 35/40/40 36/41/41 1/38/38
f 37/42/42 1/38/38 36/41/41
f 38/43/43 39/44/44 1/38/38
f 40/45/45 1/38/38 39/44/44
f 38/43/43 1/38/38 37/42/42
f 34/39/39 1/38/38 4/46/46
f 4/46/46 41/47/47 42/48/48
f 4/46/46 42/48/48 43/49/49
f 4/46/46 43/49/49 18/50/50
f 4/46/46 44/51/51 45/52/52
f 45/52/52 46/53/53 4/46/46
f 4/46/46 46/53/53 41/47/47
f 18/50/50 34/39/39 4/46/46
f 34/54/54 18/37/37 24/26/26
f 8/55/55 21/56/56 28/57/57
f 28/57/57 7/58/58 8/55/55
f 47/59/59 12/60/60 15/61/61
f 15/61/61 12/60/60 6/62/62
f 16/63/63 6/6/6 5/5/5
f 6/6/6 16/63/63 15/64/64
f 48/65/65 13/66/66 2/67/67
f 2/67/67 13/66/66 3/68/68
f 3/68/68 12/69/69 47/70/70
f 12/69/69 3/68/68 13/66/66
f 10/10/10 9/9/9 49/71/71
f 49/71/71 9/9/9 13/66/66
f 50/72/72 13/66/66 48/65/65
f 13/66/66 50/72/72 49/71/71
f 14/73/73 51/74/74 52/75/75
f 52/75/75 11/76/76 14/73/73
f 14/77/77 13/78/78 9/79/79
f 9/79/79 51/80/80 14/77/77
f 52/81/81 6/82/82 12/83/83
f 12/84/84 11/85/85 52/86/86
f 51/87/87 9/88/88 6/89/89
f 6/89/89 52/90/90 51/87/87
f 7/7/7 53/91/91 5/5/5
f 53/92/92 54/93/93 5/94/94
f 54/93/93 55/95/95 5/94/94
f 55/95/95 56/96/96 5/94/94
f 56/97/97 57/98/98 5/5/5
f 57/98/98 58/99/99 5/5/5
f 58/99/99 16/63/63 5/5/5
f 49/71/71 59/100/100 10/10/10
f 59/100/100 60/101/101 10/10/10
f 60/101/101 61/102/102 10/10/10
f 61/102/102 62/103/103 10/10/10
f 62/103/103 63/104/104 10/10/10
f 63/104/104 64/105/105 10/10/10
f 64/105/105 8/8/8 10/10/10
f 2/67/67 65/106/106 48/65/65
f 65/106/106 66/107/107 48/65/65
f 66/107/107 67/108/108 48/65/65
f 67/108/108 68/109/109 48/65/65
f 68/109/109 69/110/110 48/65/65
f 69/110/110 70/111/111 48/65/65
f 70/111/111 50/72/72 48/65/65
f 15/61/61 71/112/112 47/59/59
f 71/112/112 72/113/113 47/59/59
f 72/113/113 73/114/114 47/59/59
f 73/115/115 74/116/116 47/70/70
f 74/116/116 75/117/117 47/70/70
f 75/117/117 76/118/118 47/70/70
f 76/118/118 3/68/68 47/70/70
f 59/119/119 49/120/120 24/121/121
f 24/121/121 25/122/122 59/119/119
f 60/123/123 59/124/124 25/125/125
f 25/125/125 26/126/126 60/123/123
f 61/127/127 60/128/128 26/129/129
f 26/129/129 23/130/130 61/127/127
f 62/131/131 61/132/132 23/133/133
f 23/133/133 20/134/134 62/131/131
f 63/135/135 62/136/136 20/137/137
f 20/137/137 19/138/138 63/135/135
f 64/139/139 63/140/140 19/141/141
f 19/141/141 22/142/142 64/139/139
f 8/143/143 64/144/144 22/145/145
f 22/145/145 21/146/146 8/143/143
f 33/147/147 17/148/148 16/149/149
f 16/149/149 58/150/150 33/147/147
f 32/151/151 33/152/152 58/153/153
f 58/153/153 57/154/154 32/151/151
f 31/155/155 32/156/156 57/157/157
f 57/157/157 56/158/158 31/155/155
f 30/159/159 31/160/160 56/161/161
f 56/161/161 55/162/162 30/159/159
f 29/163/163 30/164/164 55/165/165
f 55/165/165 54/166/166 29/163/163
f 27/167/167 29/168/168 54/169/169
f 54/170/170 53/171/171 27/172/172
f 28/173/173 27/174/174 53/175/175
f 53/175/175 7/176/176 28/173/173
f 35/177/177 34/178/178 50/179/179
f 50/179/179 70/180/180 35/177/177
f 36/181/181 35/182/182 70/183/183
f 70/183/183 69/184/184 36/181/181
f 37/185/185 36/186/186 69/187/187
f 69/187/187 68/188/188 37/185/185
f 38/189/189 37/190/190 68/191/191
f 68/191/191 67/192/192 38/189/189
f 39/193/193 38/194/194 67/195/195
f 67/196/196 66/197/197 39/198/198
f 40/199/199 39/200/200 66/201/201
f 66/201/201 65/202/202 40/199/199
f 1/203/203 40/204/204 65/205/205
f 65/205/205 2/206/206 1/203/203
f 71/207/207 15/208/208 18/209/209
f 18/209/209 43/210/210 71/207/207
f 72/211/211 71/212/212 43/213/213
f 43/213/213 42/214/214 72/211/211
f 73/215/215 72/216/216 42/217/217
f 42/217/217 41/218/218 73/215/215
f 74/219/219 73/220/220 41/221/221
f 41/221/221 46/222/222 74/219/219
f 75/223/223 74/224/224 46/225/225
f 46/225/225 45/226/226 75/223/223
f 76/227/227 75/228/228 45/229/229
f 45/229/229 44/230/230 76/227/227
f 3/231/231 76/232/232 44/233/233
f 44/233/233 4/234/234 3/231/231
f 34/235/235 24/236/236 49/237/237
f 49/237/237 50/238/238 34/235/235
