# Blender v2.91.2 OBJ File: 'chair.blend'
# www.blender.org
mtllib chair.mtl
o Cube
v 0.750000 1.150000 -1.000000
v 0.750000 1.150000 -1.000000
v 0.751098 1.150000 1.000000
v 0.751098 1.150000 1.000000
v -0.750000 1.150000 -1.000000
v -0.750000 1.150000 -1.000000
v -0.750000 1.150000 1.000000
v -0.750000 1.150000 1.000000
v -1.000000 1.150000 0.000000
v 1.000000 1.150000 0.000000
v -1.000000 1.150000 0.000000
v 1.000000 1.150000 0.000000
v 0.000000 1.150000 -1.000000
v 0.000000 1.150000 1.000000
v 0.000000 1.150000 1.000000
v 0.000000 1.150000 -1.000000
v 0.000000 1.150000 0.000000
v 0.500000 1.150000 1.000000
v 0.500000 1.150000 -1.000000
v 0.500000 1.150000 0.000000
v 0.500000 1.150000 -1.000000
v 0.500000 1.150000 1.000000
v 0.500000 1.000000 0.000000
v -0.500000 1.150000 -1.000000
v -0.500000 1.150000 1.000000
v -0.500000 1.000000 0.000000
v -0.500000 1.150000 1.000000
v -0.500000 1.150000 -1.000000
v -0.500000 1.150000 0.000000
v -1.000000 1.150000 0.500000
v 1.000000 1.150000 0.500000
v -1.000000 1.150000 0.500000
v 1.000000 1.150000 0.500000
v 0.000000 1.000000 0.500000
v 0.000000 1.150000 0.500000
v 0.500000 1.150000 0.500000
v 0.500000 1.000000 0.500000
v -0.500000 1.000000 0.500000
v -0.500000 1.150000 0.500000
v -1.000000 1.150000 -0.500000
v 1.000000 1.150000 -0.500000
v -1.000000 1.150000 -0.500000
v 1.000000 1.150000 -0.500000
v 0.000000 1.150000 -0.500000
v 0.000000 1.000000 -0.500000
v 0.500000 1.150000 -0.500000
v 0.500000 1.000000 -0.500000
v -0.500000 1.000000 -0.500000
v -0.500000 1.150000 -0.500000
v -0.750000 1.150000 -1.000000
v -0.750000 1.150000 1.000000
v -0.750000 1.000000 0.000000
v -0.750000 1.150000 1.000000
v -0.750000 1.150000 -1.000000
v -0.750000 1.150000 0.000000
v -0.750000 1.000000 0.500000
v -0.750000 1.150000 0.500000
v -0.750000 1.000000 -0.500000
v -0.750000 1.150000 -0.500000
v -1.000000 1.150000 -0.750000
v 1.000000 1.150000 -0.750000
v -1.000000 1.150000 -0.750000
v 1.000000 1.150000 -0.750000
v 0.000000 1.150000 -0.750000
v 0.000000 1.000000 -0.750000
v 0.500000 1.150000 -0.750000
v 0.500000 1.000000 -0.750000
v -0.500000 1.000000 -0.750000
v -0.500000 1.150000 -0.750000
v -0.750000 1.150000 -0.750000
v -0.750000 1.000000 -0.750000
v 0.751098 1.150000 1.000000
v 0.750000 1.150000 -1.000000
v 0.750000 1.150000 0.000000
v 0.750000 1.150000 -1.000000
v 0.750000 1.150000 1.000000
v 0.750000 1.000000 0.000000
v 0.750000 1.150000 0.500000
v 0.750000 1.000000 0.500000
v 0.750000 1.150000 -0.500000
v 0.750000 1.000000 -0.500000
v 0.750000 1.000000 -0.750000
v 0.750000 1.150000 -0.750000
v -1.000000 1.150000 0.750000
v 1.000000 1.150000 0.750000
v 0.000000 1.000000 0.750000
v 0.000000 1.150000 0.750000
v 0.500000 1.150000 0.750000
v 0.500000 1.000000 0.750000
v -0.500000 1.000000 0.750000
v -0.500000 1.150000 0.750000
v -1.000000 1.150000 0.750000
v 1.000000 1.150000 0.750000
v -0.750000 1.000000 0.750000
v -0.750000 1.150000 0.750000
v 0.750000 1.150000 0.750000
v 0.750000 1.000000 0.750000
v 0.500000 -0.005069 0.000000
v 0.000000 -0.005069 0.000000
v 0.000000 -0.005069 -0.500000
v -0.500000 -0.005069 0.000000
v 0.000000 -0.005069 0.500000
vt 0.843750 0.718750
vt 0.875000 0.750000
vt 0.843750 0.750000
vt 0.375000 0.968750
vt 0.625000 1.000000
vt 0.375000 1.000000
vt 0.375000 0.218750
vt 0.625000 0.250000
vt 0.375000 0.250000
vt 0.343750 0.718750
vt 0.375000 0.750000
vt 0.343750 0.750000
vt 0.375000 0.718750
vt 0.625000 0.750000
vt 0.375000 0.468750
vt 0.625000 0.500000
vt 0.375000 0.500000
vt 0.375000 0.562500
vt 0.625000 0.625000
vt 0.375000 0.625000
vt 0.343750 0.625000
vt 0.343750 0.562500
vt 0.375000 0.062500
vt 0.625000 0.125000
vt 0.375000 0.125000
vt 0.875000 0.562500
vt 0.843750 0.625000
vt 0.843750 0.562500
vt 0.687500 0.562500
vt 0.750000 0.562500
vt 0.687500 0.625000
vt 0.187500 0.562500
vt 0.250000 0.562500
vt 0.187500 0.625000
vt 0.375000 0.312500
vt 0.625000 0.375000
vt 0.375000 0.375000
vt 0.250000 0.718750
vt 0.187500 0.750000
vt 0.187500 0.718750
vt 0.375000 0.812500
vt 0.625000 0.875000
vt 0.375000 0.875000
vt 0.750000 0.718750
vt 0.687500 0.750000
vt 0.687500 0.718750
vt 0.656250 0.750000
vt 0.656250 0.718750
vt 0.375000 0.781250
vt 0.625000 0.812500
vt 0.656250 0.625000
vt 0.656250 0.562500
vt 0.312500 0.562500
vt 0.312500 0.625000
vt 0.625000 0.437500
vt 0.375000 0.437500
vt 0.312500 0.718750
vt 0.250000 0.750000
vt 0.156250 0.750000
vt 0.156250 0.718750
vt 0.375000 0.281250
vt 0.625000 0.312500
vt 0.156250 0.625000
vt 0.156250 0.562500
vt 0.812500 0.562500
vt 0.812500 0.625000
vt 0.625000 0.937500
vt 0.375000 0.937500
vt 0.812500 0.718750
vt 0.750000 0.750000
vt 0.156250 0.687500
vt 0.187500 0.625000
vt 0.656250 0.687500
vt 0.250000 0.687500
vt 0.250000 0.687500
vt 0.375000 0.031250
vt 0.625000 0.062500
vt 0.625000 0.687500
vt 0.375000 0.687500
vt 0.343750 0.687500
vt 0.875000 0.625000
vt 0.843750 0.687500
vt 0.812500 0.531250
vt 0.750000 0.531250
vt 0.187500 0.531250
vt 0.156250 0.531250
vt 0.312500 0.531250
vt 0.250000 0.531250
vt 0.687500 0.531250
vt 0.656250 0.531250
vt 0.875000 0.531250
vt 0.843750 0.531250
vt 0.375000 0.531250
vt 0.343750 0.531250
vt 0.625000 0.562500
vt 0.625000 0.187500
vt 0.375000 0.187500
vt 0.250000 0.562500
vt 0.312500 0.625000
vt 0.187500 0.687500
vt 0.312500 0.687500
vt 0.125000 0.562500
vt 0.125000 0.531250
vt 0.812500 0.687500
vt 0.125000 0.687500
vt 0.125000 0.625000
vt 0.625000 0.281250
vt 0.125000 0.718750
vt 0.125000 0.750000
vt 0.625000 0.968750
vt 0.812500 0.750000
vt 0.125000 0.500000
vt 0.843750 0.500000
vt 0.812500 0.500000
vt 0.625000 0.531250
vt 0.343750 0.500000
vt 0.750000 0.500000
vt 0.687500 0.500000
vt 0.250000 0.500000
vt 0.187500 0.500000
vt 0.656250 0.500000
vt 0.312500 0.500000
vt 0.156250 0.500000
vt 0.625000 0.218750
vt 0.625000 0.781250
vt 0.625000 0.718750
vt 0.625000 0.468750
vt 0.312500 0.750000
vt 0.375000 0.000000
vt 0.625000 0.031250
vt 0.750000 0.687500
vt 0.687500 0.687500
vt 0.875000 0.687500
vt 0.250000 0.625000
vt 0.875000 0.718750
vt 0.875000 0.500000
vt 0.625000 0.000000
vt 0.750000 0.625000
vn 0.0000 0.0000 1.0000
vn 0.5145 -0.8575 0.0000
vn 0.0000 1.0000 0.0000
vn 0.0000 -1.0000 0.0000
vn 0.0000 -0.8575 0.5145
vn -0.7071 0.0000 -0.7071
vn -0.7071 0.0000 0.7071
vn 0.7071 0.0000 -0.7071
vn 0.7071 0.0000 0.7071
vn -0.5145 -0.8575 0.0000
vn -0.4575 -0.7625 -0.4575
vn 0.4575 -0.7625 -0.4575
vn 0.0000 -0.8575 -0.5145
vn 0.4579 -0.7632 0.4559
vn -0.4575 -0.7625 0.4575
usemtl Material
s off
f 95/1/1 7/2/1 51/3/1
f 53/4/1 7/5/1 8/6/1
f 62/7/1 5/8/1 6/9/1
f 97/10/1 4/11/1 72/12/1
f 93/13/1 3/14/1 4/11/1
f 75/15/1 1/16/1 2/17/1
f 41/18/1 10/19/1 12/20/1
f 41/18/2 77/21/2 81/22/2
f 30/23/1 11/24/1 9/25/1
f 40/26/3 55/27/3 59/28/3
f 46/29/3 44/30/3 20/31/3
f 48/32/4 45/33/4 26/34/4
f 24/35/1 16/36/1 13/37/1
f 86/38/5 27/39/5 90/40/5
f 18/41/1 14/42/1 15/43/1
f 87/44/3 22/45/3 88/46/3
f 88/46/3 76/47/3 96/48/3
f 72/49/1 22/50/1 18/41/1
f 46/29/3 74/51/3 80/52/3
f 45/33/4 47/53/4 23/54/4
f 13/37/1 19/55/1 21/56/1
f 89/57/5 15/58/5 86/38/5
f 90/40/5 53/59/5 94/60/5
f 50/61/1 28/62/1 24/35/1
f 48/32/4 52/63/4 58/64/4
f 44/30/3 49/65/3 29/66/3
f 15/43/1 25/67/1 27/68/1
f 91/69/3 14/70/3 87/44/3
f 26/34/4 56/71/4 52/63/4
f 45/33/6 101/72/6 26/34/6
f 20/31/3 78/73/3 74/51/3
f 26/34/7 102/74/7 34/75/7
f 84/76/1 32/77/1 30/23/1
f 12/20/1 31/78/1 33/79/1
f 12/20/2 79/80/2 77/21/2
f 11/81/3 57/82/3 55/27/3
f 69/83/3 44/30/3 64/84/3
f 68/85/4 58/64/4 71/86/4
f 67/87/4 45/33/4 65/88/4
f 66/89/3 80/52/3 83/90/3
f 65/88/4 48/32/4 68/85/4
f 64/84/3 46/29/3 66/89/3
f 60/91/3 59/28/3 70/92/3
f 61/93/2 81/22/2 82/94/2
f 61/93/1 43/95/1 41/18/1
f 9/25/1 40/96/1 42/97/1
f 70/92/3 49/65/3 69/83/3
f 23/54/8 100/98/8 45/33/8
f 34/75/9 98/99/9 23/54/9
f 34/75/4 38/100/4 26/34/4
f 34/75/4 23/54/4 37/101/4
f 71/86/10 42/102/10 62/103/10
f 55/27/3 39/104/3 29/66/3
f 52/63/10 30/105/10 9/106/10
f 58/64/10 9/106/10 42/102/10
f 6/9/1 54/107/1 50/61/1
f 84/108/1 53/59/1 8/109/1
f 59/28/3 29/66/3 49/65/3
f 27/68/1 51/110/1 53/4/1
f 95/1/3 25/111/3 91/69/3
f 6/112/11 71/86/11 62/103/11
f 54/113/3 69/83/3 28/114/3
f 2/17/1 63/115/1 61/93/1
f 75/116/12 61/93/12 82/94/12
f 54/113/3 60/91/3 70/92/3
f 16/117/3 66/89/3 19/118/3
f 13/119/13 68/85/13 24/120/13
f 19/118/3 83/90/3 73/121/3
f 21/122/13 65/88/13 13/119/13
f 24/120/13 71/86/13 50/123/13
f 28/114/3 64/84/3 16/117/3
f 42/97/1 60/124/1 62/7/1
f 1/16/3 83/90/3 63/115/3
f 75/116/13 67/87/13 21/122/13
f 82/94/4 47/53/4 67/87/4
f 83/90/3 43/95/3 63/115/3
f 77/21/4 37/101/4 23/54/4
f 74/51/3 31/78/3 10/19/3
f 80/52/3 10/19/3 43/95/3
f 4/11/1 76/125/1 72/49/1
f 96/48/3 3/14/3 85/126/3
f 81/22/4 23/54/4 47/53/4
f 21/56/1 73/127/1 75/15/1
f 97/10/5 18/128/5 89/57/5
f 79/80/4 89/57/4 37/101/4
f 78/73/3 85/126/3 31/78/3
f 57/82/3 91/69/3 39/104/3
f 56/71/10 84/108/10 30/105/10
f 8/129/1 92/130/1 84/76/1
f 39/104/3 87/44/3 35/131/3
f 38/100/4 94/60/4 56/71/4
f 37/101/4 86/38/4 34/75/4
f 36/132/3 96/48/3 78/73/3
f 35/131/3 88/46/3 36/132/3
f 34/75/4 90/40/4 38/100/4
f 33/79/1 85/126/1 93/13/1
f 33/79/2 97/10/2 79/80/2
f 32/133/3 95/1/3 57/82/3
f 99/134/4 98/99/4 102/74/4
f 101/72/4 99/134/4 102/74/4
f 101/72/4 100/98/4 99/134/4
f 98/99/4 99/134/4 100/98/4
f 35/131/3 29/66/3 39/104/3
f 35/131/3 36/132/3 20/31/3
f 95/1/3 92/135/3 7/2/3
f 53/4/1 51/110/1 7/5/1
f 62/7/1 60/124/1 5/8/1
f 97/10/14 93/13/14 4/11/14
f 93/13/1 85/126/1 3/14/1
f 75/15/1 73/127/1 1/16/1
f 41/18/1 43/95/1 10/19/1
f 41/18/2 12/20/2 77/21/2
f 30/23/1 32/77/1 11/24/1
f 40/26/3 11/81/3 55/27/3
f 24/35/1 28/62/1 16/36/1
f 86/38/5 15/58/5 27/39/5
f 18/41/1 22/50/1 14/42/1
f 87/44/3 14/70/3 22/45/3
f 88/46/3 22/45/3 76/47/3
f 72/49/1 76/125/1 22/50/1
f 46/29/3 20/31/3 74/51/3
f 13/37/1 16/36/1 19/55/1
f 89/57/5 18/128/5 15/58/5
f 90/40/5 27/39/5 53/59/5
f 50/61/1 54/107/1 28/62/1
f 48/32/4 26/34/4 52/63/4
f 15/43/1 14/42/1 25/67/1
f 91/69/3 25/111/3 14/70/3
f 26/34/4 38/100/4 56/71/4
f 45/33/6 100/98/6 101/72/6
f 20/31/3 36/132/3 78/73/3
f 26/34/7 101/72/7 102/74/7
f 84/76/1 92/130/1 32/77/1
f 12/20/1 10/19/1 31/78/1
f 12/20/2 33/79/2 79/80/2
f 11/81/3 32/133/3 57/82/3
f 69/83/3 49/65/3 44/30/3
f 68/85/4 48/32/4 58/64/4
f 67/87/4 47/53/4 45/33/4
f 66/89/3 46/29/3 80/52/3
f 65/88/4 45/33/4 48/32/4
f 64/84/3 44/30/3 46/29/3
f 60/91/3 40/26/3 59/28/3
f 61/93/2 41/18/2 81/22/2
f 61/93/1 63/115/1 43/95/1
f 9/25/1 11/24/1 40/96/1
f 70/92/3 59/28/3 49/65/3
f 23/54/8 98/99/8 100/98/8
f 34/75/9 102/74/9 98/99/9
f 71/86/10 58/64/10 42/102/10
f 55/27/3 57/82/3 39/104/3
f 52/63/10 56/71/10 30/105/10
f 58/64/10 52/63/10 9/106/10
f 6/9/1 5/8/1 54/107/1
f 84/108/15 94/60/15 53/59/15
f 59/28/3 55/27/3 29/66/3
f 27/68/1 25/67/1 51/110/1
f 95/1/3 51/3/3 25/111/3
f 6/112/1 50/123/1 71/86/1
f 54/113/3 70/92/3 69/83/3
f 2/17/1 1/16/1 63/115/1
f 75/116/1 2/17/1 61/93/1
f 54/113/1 5/136/1 60/91/1
f 16/117/3 64/84/3 66/89/3
f 13/119/13 65/88/13 68/85/13
f 19/118/3 66/89/3 83/90/3
f 21/122/13 67/87/13 65/88/13
f 24/120/13 68/85/13 71/86/13
f 28/114/3 69/83/3 64/84/3
f 42/97/1 40/96/1 60/124/1
f 1/16/1 73/121/1 83/90/1
f 75/116/13 82/94/13 67/87/13
f 82/94/4 81/22/4 47/53/4
f 83/90/3 80/52/3 43/95/3
f 77/21/4 79/80/4 37/101/4
f 74/51/3 78/73/3 31/78/3
f 80/52/3 74/51/3 10/19/3
f 4/11/1 3/14/1 76/125/1
f 96/48/3 76/47/3 3/14/3
f 81/22/4 77/21/4 23/54/4
f 21/56/1 19/55/1 73/127/1
f 97/10/5 72/12/5 18/128/5
f 79/80/4 97/10/4 89/57/4
f 78/73/3 96/48/3 85/126/3
f 57/82/3 95/1/3 91/69/3
f 56/71/10 94/60/10 84/108/10
f 8/129/1 7/137/1 92/130/1
f 39/104/3 91/69/3 87/44/3
f 38/100/4 90/40/4 94/60/4
f 37/101/4 89/57/4 86/38/4
f 36/132/3 88/46/3 96/48/3
f 35/131/3 87/44/3 88/46/3
f 34/75/4 86/38/4 90/40/4
f 33/79/1 31/78/1 85/126/1
f 33/79/2 93/13/2 97/10/2
f 32/133/3 92/135/3 95/1/3
usemtl Material.001
f 17/138/3 29/66/3 35/131/3
f 20/31/3 17/138/3 35/131/3
f 20/31/3 44/30/3 17/138/3
f 29/66/3 17/138/3 44/30/3
