# Blender v2.77 (sub 0) OBJ File: 'Placa.blend'
# www.blender.org
mtllib Sign.mtl
o Placa_Cube.001
v -0.053561 0.496481 0.426404
v -0.053561 0.889394 0.426404
v -0.053561 0.496481 -0.426404
v -0.053561 0.889394 -0.426404
v 0.053561 0.496481 0.426404
v 0.053561 0.889394 0.426404
v 0.053561 0.496481 -0.426404
v 0.053561 0.889394 -0.426404
v -0.053561 0.593956 0.426404
v -0.053561 0.608742 0.316782
v -0.053561 0.623528 0.426404
v -0.053561 0.761847 0.426404
v -0.053561 0.777133 0.303803
v -0.053561 0.792419 0.426404
v -0.053561 0.792419 -0.426404
v -0.053561 0.777133 -0.303803
v -0.053561 0.761847 -0.426404
v -0.053561 0.623528 -0.426404
v -0.053561 0.608742 -0.316782
v -0.053561 0.593956 -0.426404
v 0.053561 0.792419 -0.426404
v 0.053561 0.777133 -0.303803
v 0.053561 0.761847 -0.426404
v 0.053561 0.623528 -0.426404
v 0.053561 0.608742 -0.316782
v 0.053561 0.593956 -0.426404
v 0.053561 0.792419 0.426404
v 0.053561 0.777133 0.303803
v 0.053561 0.761847 0.426404
v 0.053561 0.623528 0.426404
v 0.053561 0.608742 0.316782
v 0.053561 0.593956 0.426404
vt 0.1720 0.4197
vt 0.1720 0.2209
vt 0.2215 0.2209
vt 0.2215 0.4197
vt 0.5407 0.2209
vt 0.5407 0.4197
vt 0.4912 0.4197
vt 0.4912 0.2209
vt 0.1720 0.2209
vt 0.1720 0.0220
vt 0.2215 0.0220
vt 0.2215 0.2209
vt 0.4912 0.2209
vt 0.4912 0.0220
vt 0.5407 0.0220
vt 0.5407 0.2209
vt 0.4210 0.2209
vt 0.4210 0.4197
vt 0.2215 0.4197
vt 0.2215 0.2209
vt 0.2215 0.0220
vt 0.4210 0.0220
vt 0.4210 0.2209
vt 0.2215 0.2209
vt 0.5407 0.4197
vt 0.5407 0.2209
vt 0.5899 0.2209
vt 0.5899 0.4197
vt 0.6186 0.2209
vt 0.6186 0.4197
vt 0.5899 0.4197
vt 0.5899 0.2209
vt 0.6186 0.0220
vt 0.6186 0.2209
vt 0.5899 0.2209
vt 0.5899 0.0220
vt 0.4912 0.2209
vt 0.4912 0.4197
vt 0.4210 0.4197
vt 0.4210 0.2209
vt 0.1820 0.4197
vt 0.1820 0.6186
vt 0.1563 0.6186
vt 0.1563 0.4197
vt 0.1307 0.6186
vt 0.1307 0.4197
vt 0.0220 0.2209
vt 0.0220 0.0220
vt 0.0713 0.0220
vt 0.0713 0.2209
vt 0.0790 0.0506
vt 0.0790 0.1923
vt 0.0868 0.0220
vt 0.0868 0.2209
vt 0.1570 0.0220
vt 0.1570 0.2209
vt 0.1645 0.0476
vt 0.1645 0.1953
vt 0.5899 0.0220
vt 0.5899 0.2209
vt 0.5407 0.2209
vt 0.5407 0.0220
vt 0.0507 0.6186
vt 0.0507 0.4197
vt 0.0794 0.4197
vt 0.0794 0.6186
vt 0.0220 0.6186
vt 0.0220 0.4197
vt 0.0507 0.4197
vt 0.0507 0.6186
vt 0.4210 0.2209
vt 0.4210 0.0220
vt 0.4912 0.0220
vt 0.4912 0.2209
vt 0.0794 0.6186
vt 0.0794 0.4197
vt 0.1050 0.4197
vt 0.1050 0.6186
vt 0.1307 0.4197
vt 0.1307 0.6186
vt 0.0220 0.4197
vt 0.0220 0.2209
vt 0.0713 0.2209
vt 0.0713 0.4197
vt 0.0790 0.2495
vt 0.0790 0.3911
vt 0.0868 0.2209
vt 0.0868 0.4197
vt 0.1570 0.2209
vt 0.1570 0.4197
vt 0.1645 0.2464
vt 0.1645 0.3942
vn -1.0000 0.0000 0.0000
vn 0.0000 0.0000 -1.0000
vn 1.0000 0.0000 0.0000
vn 0.0000 0.0000 1.0000
vn 0.0000 -1.0000 0.0000
vn 0.0000 1.0000 0.0000
vn 0.0000 -0.9923 0.1237
vn 0.0000 0.9923 0.1237
vn 0.0000 -0.9910 0.1337
vn 0.0000 0.9910 0.1337
vn 0.0000 -0.9923 -0.1237
vn 0.0000 0.9923 -0.1237
vn 0.0000 -0.9910 -0.1337
vn 0.0000 0.9910 -0.1337
usemtl Sign
s off
f 9/1/1 20/2/1 3/3/1 1/4/1
f 20/5/2 26/6/2 7/7/2 3/8/2
f 26/9/3 32/10/3 5/11/3 7/12/3
f 32/13/4 9/14/4 1/15/4 5/16/4
f 1/17/5 3/18/5 7/19/5 5/20/5
f 6/21/6 8/22/6 4/23/6 2/24/6
f 6/25/4 2/26/4 14/27/4 27/28/4
f 27/29/7 14/30/7 13/31/7 28/32/7
f 28/33/8 13/34/8 12/35/8 29/36/8
f 29/37/4 12/38/4 11/39/4 30/40/4
f 30/41/9 11/42/9 10/43/9 31/44/9
f 31/44/10 10/43/10 9/45/10 32/46/10
f 8/47/3 6/48/3 27/49/3 21/50/3
f 21/50/3 27/49/3 28/51/3 22/52/3
f 22/52/3 28/51/3 29/53/3 23/54/3
f 23/54/3 29/53/3 30/55/3 24/56/3
f 24/56/3 30/55/3 31/57/3 25/58/3
f 25/58/3 31/57/3 32/10/3 26/9/3
f 4/59/2 8/60/2 21/61/2 15/62/2
f 15/63/11 21/64/11 22/65/11 16/66/11
f 16/67/12 22/68/12 23/69/12 17/70/12
f 17/71/2 23/72/2 24/73/2 18/74/2
f 18/75/13 24/76/13 25/77/13 19/78/13
f 19/78/14 25/77/14 26/79/14 20/80/14
f 2/81/1 4/82/1 15/83/1 14/84/1
f 14/84/1 15/83/1 16/85/1 13/86/1
f 13/86/1 16/85/1 17/87/1 12/88/1
f 12/88/1 17/87/1 18/89/1 11/90/1
f 11/90/1 18/89/1 19/91/1 10/92/1
f 10/92/1 19/91/1 20/2/1 9/1/1
o Cabo_Cube
v 0.042606 -0.080960 -0.048413
v 0.042606 -0.080960 0.048413
v -0.042606 -0.080960 0.048413
v -0.042606 -0.080960 -0.048413
v 0.042606 0.935678 -0.048413
v 0.042606 0.935678 0.048413
v -0.042606 0.935678 0.048413
v -0.042606 0.935678 -0.048413
vt 0.0230 0.8836
vt 0.1359 0.8836
vt 0.1359 0.9965
vt 0.0230 0.9965
vt 0.1359 0.7708
vt 0.1359 0.8836
vt 0.0230 0.8836
vt 0.0230 0.7708
vt 0.2488 0.7708
vt 0.1359 0.6579
vt 0.2488 0.6579
vt 0.0230 0.7708
vt 0.0230 0.6579
vt 0.1359 0.6579
vt 0.1359 0.7708
vt 0.3616 0.7708
vt 0.2488 0.7708
vt 0.2488 0.6579
vt 0.3616 0.6579
vt 0.2488 0.8836
vn 0.0000 -1.0000 0.0000
vn 0.0000 1.0000 0.0000
vn 1.0000 -0.0000 0.0000
vn -0.0000 -0.0000 1.0000
vn -1.0000 -0.0000 -0.0000
vn 0.0000 0.0000 -1.0000
usemtl Sign
s off
f 33/93/15 34/94/15 35/95/15 36/96/15
f 37/97/16 40/98/16 39/99/16 38/100/16
f 33/101/17 37/97/17 38/102/17 34/103/17
f 34/104/18 38/105/18 39/106/18 35/107/18
f 35/108/19 39/109/19 40/110/19 36/111/19
f 37/97/20 33/101/20 36/112/20 40/98/20
