# Blender v2.91.0 OBJ File: 'uploads_files_2727648_Futuristic+City.blend'
# www.blender.org
mtllib building2.mtl
o Downtown_Center_City.004
v -14.376423 -1.863457 -4.808900
v -29.857922 -1.863457 -4.808900
v -22.117184 -1.863459 8.253249
v -16.704426 -0.535954 -2.844126
v -22.117184 -0.535955 6.288476
v -27.529163 -0.535954 -2.844126
v -19.615185 37.770218 -0.387944
v -17.562435 2.852316 -3.683447
v -16.062435 3.003292 -1.425350
v -20.534672 3.003290 6.121902
v -18.467686 34.658020 0.604156
v -20.534672 34.658020 4.092257
v -22.117184 37.770218 3.833210
v -24.618427 37.770218 -0.387944
v -22.117184 36.850414 4.938183
v -25.699184 35.634819 0.463531
v -23.503178 2.004667 6.325453
v -23.503178 35.634819 4.169133
v -28.255177 2.004669 -1.692873
v -25.927929 36.850414 -1.492917
v -18.305683 36.850414 -1.492917
v -19.033184 43.068592 -0.879341
v -25.200428 43.068592 -0.879341
v -22.117184 43.068588 4.323710
v -20.197918 46.300423 0.102557
v -24.036427 46.300423 0.102557
v -22.117184 61.009422 1.182636
v -22.117184 46.300419 3.341733
v -24.222416 35.087990 -1.616891
v -20.011929 35.087990 -1.616891
v -26.671932 2.852316 -3.683447
v -3.378422 -1.863457 -4.808900
v -18.859921 -1.863457 -4.808900
v -11.119183 -1.863459 8.253249
v -5.707180 -0.535954 -2.844126
v -11.119183 -0.535955 6.288476
v -16.531185 -0.535954 -2.844126
v -8.617916 37.770218 -0.387944
v -6.564434 2.852316 -3.683522
v -15.673931 2.852316 -3.683522
v -9.013927 35.087990 -1.616891
v -13.224415 35.087990 -1.616891
v -13.620426 37.770218 -0.387944
v -11.119183 37.770218 3.833210
v -14.930683 36.850414 -1.492917
v -14.768681 34.658020 0.604156
v -12.701672 34.658020 4.092257
v -17.173931 3.003292 -1.425350
v -12.701672 3.003290 6.121902
v -11.119183 36.850414 4.938183
v -7.307682 36.850414 -1.492917
v -14.202427 43.068592 -0.879341
v -8.035183 43.068592 -0.879341
v -11.119183 43.068588 4.323710
v -13.038425 46.300423 0.102557
v -9.199917 46.300423 0.102557
v -11.119183 61.009422 1.182636
v -11.119183 46.300419 3.341733
v -9.733166 35.634819 4.169133
v -9.733166 2.004667 6.325453
v -7.536427 35.634819 0.463531
v -4.981167 2.004669 -1.692873
v -7.326427 -1.030279 -11.652272
v -26.956181 -1.030279 -11.652272
v -17.141682 -1.030283 4.909451
v -10.279163 0.652721 -9.161150
v -17.141682 0.652719 2.419075
v -24.004177 0.652721 -9.161150
v -13.969929 49.222420 -6.047068
v -11.366673 4.949093 -10.225771
v -22.915936 4.949093 -10.225771
v -14.472416 45.821171 -7.605342
v -19.810169 45.821171 -7.605342
v -20.313435 49.222420 -6.047068
v -17.141682 49.222420 -0.695141
v -21.973927 48.056168 -7.448517
v -21.769169 45.276665 -4.789392
v -19.147923 45.276665 -0.366565
v -24.818676 5.140343 -7.362196
v -19.147923 5.140341 2.207125
v -17.141682 48.056168 0.706010
v -12.308681 48.056168 -7.448517
v -21.051418 55.940170 -6.670089
v -13.231922 55.940170 -6.670089
v -17.141682 55.940170 -0.072341
v -19.574673 60.037418 -5.424262
v -14.707935 60.037418 -5.424262
v -17.141682 78.686920 -4.055511
v -17.141682 60.037418 -1.318013
v -15.383663 46.514915 -0.268466
v -15.383663 3.874193 2.465349
v -9.358921 3.874195 -7.701273
v -12.598927 46.514915 -4.967067
v -16.478680 101.158417 -11.635611
v -16.478680 101.158417 -11.567959
v -16.374424 101.158417 -11.635611
v -16.374424 101.158417 -11.567959
v -28.255177 2.004669 -1.692873
v -23.503178 2.004667 6.325453
v -25.699184 35.634819 0.463531
v -23.503178 35.634819 4.169133
v -25.927929 36.850414 -1.492917
v -22.117184 36.850414 4.938183
v -25.200428 43.068592 -0.879341
v -22.117184 43.068588 4.323710
v -9.733166 2.004667 6.325453
v -4.981167 2.004669 -1.692873
v -9.733166 35.634819 4.169133
v -7.536427 35.634819 0.463531
v -11.119183 36.850414 4.938183
v -7.307682 36.850414 -1.492917
v -11.119183 43.068588 4.323710
v -8.035183 43.068592 -0.879341
v -15.383663 3.874193 2.465349
v -9.358921 3.874195 -7.701273
v -15.383663 46.514915 -0.268466
v -12.598927 46.514915 -4.967067
v -24.818676 5.140343 -7.362196
v -19.147923 5.140341 2.207125
v -21.769169 45.276665 -4.789392
v -19.147923 45.276665 -0.366565
v -17.141682 48.056168 0.706010
v -12.308681 48.056168 -7.448517
v -17.141682 55.940170 -0.072341
v -21.973927 48.056168 -7.448517
v -21.051418 55.940170 -6.670089
v -13.231922 55.940170 -6.670089
v -20.534672 3.003290 6.121902
v -16.062435 3.003292 -1.425350
v -20.534672 34.658020 4.092257
v -18.467686 34.658020 0.604156
v -22.117184 36.850414 4.938183
v -18.305683 36.850414 -1.492917
v -22.117184 43.068588 4.323710
v -19.033184 43.068592 -0.879341
v -17.173931 3.003292 -1.425350
v -12.701672 3.003290 6.121902
v -14.768681 34.658020 0.604156
v -12.701672 34.658020 4.092257
v -14.930683 36.850414 -1.492917
v -11.119183 36.850414 4.938183
v -14.202427 43.068592 -0.879341
v -11.119183 43.068588 4.323710
v -17.141682 49.222420 -0.695141
v -17.141682 0.652719 2.419075
v -15.383663 46.514915 -0.268466
v -19.147923 45.276665 -0.366565
v -19.147923 5.140341 2.207125
v -15.383663 3.874193 2.465349
vt 0.575990 0.092170
vt 0.512000 0.103870
vt 0.214540 0.103870
vt 0.150560 0.092170
vt 0.363270 0.092170
vt 0.363270 0.103870
vt 0.529660 0.135060
vt 0.463560 0.414000
vt 0.432010 0.441420
vt 0.421120 0.417790
vt 0.488430 0.133730
vt 0.294530 0.441420
vt 0.258540 0.433320
vt 0.363270 0.433320
vt 0.363270 0.441420
vt 0.468010 0.433320
vt 0.448010 0.488110
vt 0.278540 0.488110
vt 0.416020 0.516590
vt 0.310530 0.516590
vt 0.363270 0.488110
vt 0.363270 0.516590
vt 0.363270 0.646200
vt 0.878210 0.092170
vt 0.814220 0.103870
vt 0.516760 0.103870
vt 0.452780 0.092170
vt 0.665490 0.092170
vt 0.665490 0.103870
vt 0.540330 0.133730
vt 0.607640 0.417790
vt 0.596750 0.441420
vt 0.560760 0.433320
vt 0.665490 0.433320
vt 0.665490 0.441420
vt 0.734230 0.441420
vt 0.770230 0.433320
vt 0.750230 0.488110
vt 0.580750 0.488110
vt 0.718240 0.516590
vt 0.612750 0.516590
vt 0.665490 0.516590
vt 0.665490 0.488110
vt 0.665490 0.646200
vt 0.769710 0.099510
vt 0.688580 0.114340
vt 0.311430 0.114340
vt 0.230290 0.099510
vt 0.500000 0.099510
vt 0.500000 0.114340
vt 0.412840 0.542340
vt 0.367200 0.532060
vt 0.500000 0.532060
vt 0.500000 0.542340
vt 0.587160 0.542340
vt 0.632790 0.532060
vt 0.607440 0.601540
vt 0.392560 0.601540
vt 0.566870 0.637650
vt 0.433130 0.637650
vt 0.500000 0.637650
vt 0.500000 0.601540
vt 0.500000 0.801990
vt 0.518220 1.000000
vt 0.521080 1.000000
vt 0.521080 1.000000
vt 0.518220 1.000000
vt 0.184000 0.682750
vt 0.208700 0.770730
vt 0.313360 0.770730
vt 0.313360 0.682750
vt 0.686640 0.682750
vt 0.686640 0.770730
vt 0.791300 0.770730
vt 0.816000 0.682750
vt 0.482240 0.841290
vt 0.482240 0.952830
vt 0.614940 0.952830
vt 0.646260 0.841290
vt 0.318220 0.841290
vt 0.349530 0.952830
vt 0.363270 0.686810
vt 0.363270 0.773660
vt 0.448010 0.773660
vt 0.468010 0.686810
vt 0.560760 0.686810
vt 0.580750 0.773660
vt 0.665490 0.773660
vt 0.665490 0.686810
vt 0.406760 0.135060
vt 0.238110 0.133730
vt 0.406760 0.414000
vt 0.325180 0.422610
vt 0.264830 0.422610
vt 0.325180 0.126260
vt 0.194600 0.126260
vt 0.305430 0.417790
vt 0.703590 0.126260
vt 0.834160 0.126260
vt 0.790650 0.133730
vt 0.723340 0.417790
vt 0.763940 0.422610
vt 0.622010 0.414000
vt 0.565200 0.414000
vt 0.499100 0.135060
vt 0.622010 0.135060
vt 0.703590 0.422610
vt 0.548300 0.142730
vt 0.713860 0.142730
vt 0.658690 0.152200
vt 0.341310 0.152200
vt 0.573350 0.512370
vt 0.624820 0.518480
vt 0.426650 0.512370
vt 0.444860 0.507570
vt 0.372840 0.507570
vt 0.289030 0.153890
vt 0.444860 0.153890
vt 0.548300 0.518480
vt 0.105030 0.189760
vt 0.191770 0.665560
vt 0.266310 0.665560
vt 0.266310 0.189760
vt 0.733690 0.189760
vt 0.733690 0.665560
vt 0.808230 0.665560
vt 0.894970 0.189760
vt 0.541900 0.216210
vt 0.541900 0.819490
vt 0.636410 0.819490
vt 0.746380 0.216210
vt 0.221660 0.234120
vt 0.325180 0.801960
vt 0.414140 0.801960
vt 0.414140 0.234120
vt 0.406760 0.214070
vt 0.406760 0.656190
vt 0.463560 0.656190
vt 0.529660 0.214070
vt 0.499100 0.214070
vt 0.565200 0.656190
vt 0.622010 0.656190
vt 0.622010 0.214070
vt 0.500000 0.181240
vt 0.444860 0.243920
vt 0.444860 0.804490
vt 0.500000 0.859600
vt 0.548300 0.821790
vt 0.548300 0.226230
vn -0.5453 -0.6193 0.5650
vn -0.1412 -0.9573 0.2523
vn 0.3496 -0.8120 0.4674
vn 0.5453 -0.6193 0.5650
vn -0.6868 -0.6022 -0.4070
vn -0.4660 -0.7843 -0.4094
vn -0.5080 -0.8381 -0.1986
vn -0.9414 -0.3343 0.0453
vn -0.7220 0.2545 0.6434
vn -0.8605 0.0417 0.5078
vn -0.8419 -0.2461 0.4802
vn -0.6916 0.1915 0.6965
vn -0.7168 0.1067 0.6891
vn -0.7788 -0.1316 0.6133
vn -0.8119 0.0340 0.5828
vn -0.8651 0.2593 0.4293
vn -0.7570 0.4949 0.4268
vn -0.7651 0.4132 0.4939
vn -0.7337 0.5222 0.4347
vn 0.7336 0.5222 0.4348
vn 0.4897 0.8612 -0.1363
vn 0.4897 0.8611 -0.1364
vn 0.4897 0.8612 -0.1364
vn -0.0613 0.8340 -0.5484
vn 0.0338 0.7587 -0.6505
vn 0.0000 -0.0982 0.9952
vn -0.0000 -0.1954 0.9807
vn -0.0143 -0.2880 0.9575
vn 0.0143 -0.2880 0.9575
vn -0.8501 -0.1532 -0.5038
vn -0.8480 -0.1523 -0.5077
vn -0.8534 -0.1521 -0.4986
vn 0.0012 -0.0587 0.9983
vn 0.0000 -0.0732 0.9973
vn -0.0012 -0.0587 0.9983
vn -0.8581 -0.0684 -0.5090
vn -0.8584 -0.0701 -0.5081
vn -0.8579 -0.0746 -0.5083
vn 0.8584 -0.0702 -0.5082
vn 0.8580 -0.0685 -0.5090
vn 0.8579 -0.0746 -0.5083
vn 0.8502 -0.1531 -0.5038
vn 0.8534 -0.1520 -0.4987
vn 0.8480 -0.1523 -0.5076
vn 0.9413 -0.3344 0.0453
vn 0.3834 -0.7536 -0.5339
vn 0.4703 -0.7892 -0.3949
vn 0.6867 -0.6023 -0.4070
vn -0.1475 -0.9557 0.2547
vn 0.3486 -0.8148 0.4632
vn -0.6867 -0.6023 -0.4070
vn -0.5916 -0.7800 -0.2038
vn -0.5032 -0.8397 -0.2044
vn -0.9413 -0.3344 0.0453
vn 0.8410 0.2634 0.4725
vn 0.7749 -0.0618 0.6290
vn 0.8026 -0.2224 0.5536
vn 0.7173 0.1067 0.6886
vn -0.7568 0.4951 0.4267
vn -0.7649 0.4136 0.4939
vn -0.7335 0.5225 0.4347
vn -0.0611 0.8339 -0.5485
vn 0.0338 0.7588 -0.6505
vn -0.8503 -0.1529 -0.5037
vn 0.7335 0.5224 0.4347
vn 0.3831 -0.7570 -0.5292
vn 0.4743 -0.6512 -0.5924
vn -0.3827 -0.6933 0.6107
vn -0.1476 -0.9557 0.2546
vn 0.3488 -0.8147 0.4633
vn 0.3827 -0.6932 0.6107
vn -0.8568 -0.3721 -0.3569
vn -0.5031 -0.8397 -0.2044
vn -0.8892 -0.4493 -0.0861
vn -0.7569 0.4949 0.4268
vn -0.7651 0.4130 0.4939
vn -0.7337 0.5222 0.4348
vn -0.0614 0.8341 -0.5482
vn 0.0338 0.7588 -0.6504
vn 0.0000 -0.0983 0.9952
vn -0.0000 -0.1956 0.9807
vn -0.0000 -0.1955 0.9807
vn -0.0143 -0.2882 0.9575
vn 0.0144 -0.2882 0.9575
vn 0.8501 -0.1532 -0.5038
vn 0.8534 -0.1521 -0.4987
vn 0.8480 -0.1524 -0.5076
vn -0.0013 -0.0586 0.9983
vn -0.8579 -0.0746 -0.5084
vn -0.8579 -0.0685 -0.5092
vn -0.8583 -0.0702 -0.5084
vn -0.8501 -0.1531 -0.5038
vn -0.8480 -0.1523 -0.5076
vn -0.8533 -0.1519 -0.4987
vn 0.7336 0.5224 0.4347
vn 0.4897 0.8612 -0.1362
vn 0.8893 -0.4492 -0.0861
vn 0.3831 -0.7569 -0.5295
vn 0.8443 -0.3582 -0.3987
vn 0.6868 -0.6022 -0.4070
vn 0.0070 -0.9999 0.0150
vn -0.0135 -0.9999 0.0096
vn -0.0070 -0.9999 -0.0150
vn 0.0135 -0.9999 -0.0096
vn 0.8592 -0.0503 -0.5091
vn -0.8592 -0.0503 -0.5092
vn 0.8592 -0.0503 -0.5092
vn -0.6118 0.4923 -0.6192
vn -0.8265 0.1950 -0.5280
vn -0.8694 0.1656 -0.4656
vn -0.8354 0.5230 -0.1689
vn -0.2789 0.4395 0.8538
vn -0.0313 0.0769 0.9965
vn 0.0993 0.1054 0.9895
vn 0.1216 0.5495 0.8266
vn -0.8031 -0.1370 -0.5799
vn -0.8646 -0.2564 -0.4321
vn -0.8006 -0.2918 -0.5233
vn -0.9296 -0.2668 -0.2542
vn -0.0812 0.2165 -0.9729
vn -0.0604 -0.1848 -0.9809
vn -0.0604 0.0535 -0.9967
vn 0.0939 0.2156 -0.9720
vn 0.8981 -0.3233 -0.2982
vn 0.0206 -0.2006 -0.9795
vn 0.9431 -0.0810 0.3224
vn 0.7991 -0.2453 -0.5488
vn -0.2080 0.2132 -0.9546
vn 0.3799 0.5805 -0.7202
vn 0.5009 0.5617 -0.6585
vn -0.0976 0.2383 -0.9663
vn 0.6155 0.1929 0.7641
vn 0.9501 0.2917 -0.1105
vn 0.8688 -0.4720 -0.1495
vn 0.6004 0.2277 0.7666
vn 0.8916 0.4373 -0.1171
vn 0.9464 -0.0183 0.3225
vn 0.6834 -0.4253 -0.5934
vn 0.5663 0.5679 -0.5973
vn -0.3191 -0.3675 0.8736
vn 0.0376 -0.2770 0.9601
vn -0.1000 -0.3068 0.9465
vn 0.3113 -0.3452 0.8854
vn 0.8407 0.2634 0.4732
vn 0.7030 0.0841 0.7062
vn -0.1575 -0.0050 0.9875
vn -0.1043 -0.1745 0.9791
vn 0.1426 -0.1183 0.9827
vn 0.1263 0.0476 0.9908
vn -0.5833 0.4603 -0.6692
vn -0.1068 0.2109 -0.9717
vn -0.8151 -0.4773 -0.3283
vn -0.7883 0.5991 -0.1401
vn -0.2764 0.4425 0.8531
vn -0.0314 0.0768 0.9966
vn 0.1243 0.5486 0.8268
vn -0.7030 0.0837 0.7063
vn -0.7790 -0.1316 0.6130
vn -0.8121 0.0341 0.5825
vn -0.8649 0.2595 0.4298
vn -0.6471 0.2513 0.7198
vn -0.7712 0.6260 0.1159
vn -0.9811 -0.0319 -0.1908
vn -0.6151 0.1927 0.7645
vn -0.1576 -0.0050 0.9875
vn -0.1044 -0.1746 0.9791
vn -0.3113 -0.3451 0.8855
vn -0.1001 -0.3067 0.9465
vn 0.3190 -0.3679 0.8734
vn 0.9297 -0.2656 -0.2552
vn 0.8006 -0.2921 -0.5231
vn 0.8647 -0.2564 -0.4320
vn 0.8031 -0.1371 -0.5799
vn 0.6914 0.1915 0.6966
vn 0.8417 -0.2462 0.4805
vn 0.8603 0.0417 0.5081
vn 0.6867 0.2382 0.6868
vn 0.9244 0.3560 -0.1367
vn 0.8694 0.1656 -0.4655
vn 0.8265 0.1954 -0.5279
vn 0.6405 0.5673 -0.5177
vn -0.0529 0.2209 -0.9739
vn 0.0601 0.0533 -0.9968
vn 0.0601 -0.1846 -0.9810
vn 0.0793 0.2173 -0.9729
vn -0.7993 -0.2454 -0.5485
vn -0.9797 0.0783 0.1845
vn -0.6857 0.3990 -0.6088
vn -0.8981 -0.3244 -0.2969
vn 0.0956 0.2380 -0.9666
vn -0.3574 -0.7520 -0.5538
vn -0.3634 -0.6796 -0.6373
vn 0.2543 0.1968 -0.9469
vn -0.9231 0.2319 -0.3067
vn -0.1442 -0.4354 -0.8886
vn -0.8153 -0.4769 -0.3284
vn -0.7883 0.5991 -0.1400
vn -0.2765 0.4426 0.8530
vn -0.0314 0.0769 0.9965
vn 0.0992 0.1056 0.9895
vn 0.1244 0.5487 0.8267
vn -0.7021 0.0823 0.7073
vn -0.7789 -0.1317 0.6132
vn -0.8120 0.0342 0.5826
vn -0.8648 0.2595 0.4299
vn -0.6472 0.2514 0.7196
vn -0.7714 0.6257 0.1160
vn -0.9812 -0.0322 -0.1904
vn -0.6141 0.1921 0.7654
vn -0.1045 -0.1746 0.9791
vn 0.1425 -0.1182 0.9827
vn 0.1262 0.0475 0.9909
vn -0.3117 -0.3468 0.8846
vn 0.0375 -0.2770 0.9601
vn -0.1001 -0.3066 0.9466
vn 0.3193 -0.3691 0.8728
vn 0.8407 0.2635 0.4730
vn 0.7746 -0.0618 0.6294
vn 0.8022 -0.2224 0.5540
vn 0.7159 0.1050 0.6903
vn 0.7756 -0.4326 -0.4597
vn 0.8644 -0.2569 -0.4322
vn 0.8042 -0.1365 -0.5785
vn 0.6900 0.1906 0.6982
vn 0.8416 -0.2458 0.4809
vn 0.8600 0.0409 0.5087
vn 0.6867 0.2383 0.6868
vn 0.9245 0.3558 -0.1367
vn 0.8691 0.1666 -0.4657
vn 0.8093 0.3391 -0.4796
vn 0.9439 0.1810 -0.2764
vn -0.8001 -0.2452 -0.5475
vn -0.9798 0.0779 0.1840
vn -0.1475 0.3381 -0.9295
vn -0.7249 -0.5384 -0.4296
vn 0.8598 -0.0327 -0.5096
vn -0.8598 -0.0327 -0.5096
vn -0.8598 -0.0327 -0.5095
vn 0.8598 -0.0327 -0.5095
vn -0.0457 -0.0648 -0.9968
vn -0.0376 -0.0639 -0.9972
vn -0.0467 -0.0628 -0.9969
vn 0.1337 -0.0667 -0.9888
vn 0.1421 -0.0633 -0.9878
vn 0.1345 -0.0608 -0.9890
usemtl Material.029
s off
f 1/1/1 4/2/2 6/3/3 2/4/4
f 3/5/5 5/6/6 4/2/7 1/1/8
f 4/2/9 9/7/10 11/8/11 7/9/12
f 7/9/13 30/10/14 8/11/15 4/2/16
f 14/12/17 20/13/18 15/14/19 13/15/19
f 13/15/20 15/14/20 21/16/21 7/9/22
f 7/9/23 21/16/21 20/13/24 14/12/25
f 21/16/26 22/17/27 23/18/27 20/13/26
f 22/17/27 25/19/28 26/20/29 23/18/27
f 24/21/30 28/22/31 25/19/32 22/17/30
f 25/19/33 27/23/34 26/20/35
f 25/19/36 28/22/37 27/23/38
f 28/22/39 26/20/40 27/23/41
f 23/18/42 26/20/43 28/22/44 24/21/42
f 2/4/45 6/3/46 5/6/47 3/5/48
f 32/24/1 35/25/49 37/26/50 33/27/4
f 34/28/51 36/29/52 35/25/53 32/24/54
f 37/26/55 40/30/56 42/31/57 43/32/58
f 43/32/59 45/33/60 50/34/61 44/35/61
f 38/36/22 51/37/22 45/33/62 43/32/63
f 51/37/26 53/38/27 52/39/27 45/33/26
f 53/38/27 56/40/28 55/41/29 52/39/27
f 52/39/42 55/41/43 58/42/44 54/43/42
f 56/40/33 57/44/34 55/41/35
f 57/44/41 58/42/39 55/41/40
f 57/44/38 56/40/36 58/42/37
f 54/43/64 58/42/31 56/40/32 53/38/64
f 44/35/65 50/34/65 51/37/22 38/36/22
f 33/27/45 37/26/66 36/29/67 34/28/48
f 63/45/68 66/46/69 68/47/70 64/48/71
f 65/49/51 67/50/72 66/46/73 63/45/74
f 74/51/75 76/52/76 81/53/77 75/54/77
f 69/55/21 82/56/21 76/52/78 74/51/79
f 82/56/80 84/57/81 83/58/81 76/52/80
f 84/57/82 87/59/83 86/60/84 83/58/82
f 83/58/85 86/60/86 89/61/87 85/62/85
f 87/59/33 88/63/34 86/60/88
f 88/63/41 89/61/39 86/60/40
f 88/63/89 87/59/90 89/61/91
f 85/62/92 89/61/93 87/59/94 84/57/92
f 75/54/95 81/53/95 82/56/96 69/55/21
f 64/48/97 68/47/98 67/50/99 65/49/100
f 94/64/101 96/65/102 97/66/103 95/67/104
f 102/68/105 104/69/105 105/70/105 103/71/105
f 110/72/106 112/73/106 113/74/106 111/75/106
f 122/76/106 124/77/106 127/78/106 123/79/106
f 125/80/107 126/81/107 124/77/107 122/76/107
f 132/82/106 134/83/106 135/84/106 133/85/106
f 140/86/107 142/87/107 143/88/107 141/89/107
usemtl Material.021
f 5/6/108 10/90/109 9/7/110 4/2/111
f 4/2/112 8/11/113 31/91/114 6/3/115
f 7/9/116 11/8/117 12/92/118 13/15/119
f 13/15/120 12/92/121 10/90/122 5/6/123
f 13/15/124 18/93/125 16/94/126 14/12/127
f 5/6/128 17/95/129 18/93/130 13/15/131
f 14/12/132 16/94/133 19/96/134 6/3/135
f 6/3/136 19/96/137 17/95/138 5/6/139
f 14/12/140 29/97/141 30/10/142 7/9/143
f 6/3/144 31/91/56 29/97/57 14/12/145
f 8/11/146 30/10/147 29/97/148 31/91/149
f 36/29/150 60/98/151 62/99/152 35/25/153
f 35/25/154 39/100/155 40/30/114 37/26/156
f 38/36/157 41/101/158 39/100/159 35/25/160
f 35/25/161 62/99/162 61/102/163 38/36/164
f 39/100/165 41/101/166 42/31/148 40/30/149
f 43/32/167 42/31/141 41/101/168 38/36/169
f 44/35/170 47/103/171 46/104/172 43/32/173
f 43/32/174 46/104/175 48/105/176 37/26/177
f 37/26/178 48/105/179 49/106/180 36/29/181
f 36/29/182 49/106/183 47/103/184 44/35/185
f 38/36/186 61/102/187 59/107/188 44/35/189
f 44/35/190 59/107/191 60/98/192 36/29/193
f 67/50/194 91/108/195 92/109/196 66/46/197
f 66/46/198 70/110/199 71/111/200 68/47/201
f 69/55/202 72/112/203 70/110/204 66/46/205
f 66/46/206 92/109/207 93/113/208 69/55/209
f 70/110/165 72/112/210 73/114/211 71/111/212
f 74/51/213 73/114/214 72/112/215 69/55/216
f 68/47/217 71/111/218 73/114/219 74/51/220
f 75/54/221 78/115/221 77/116/222 74/51/223
f 74/51/224 77/116/225 79/117/226 68/47/227
f 68/47/228 79/117/229 80/118/230 67/50/231
f 69/55/232 93/113/233 90/119/234 75/54/235
f 98/120/236 100/121/236 101/122/236 99/123/236
f 106/124/237 108/125/237 109/126/237 107/127/237
f 114/128/238 116/129/238 117/130/238 115/131/238
f 118/132/239 120/133/239 121/134/239 119/135/239
f 128/136/238 130/137/238 131/138/238 129/139/238
f 136/140/239 138/141/239 139/142/239 137/143/239
f 145/144/240 148/145/241 147/146/241 144/147/242
f 144/147/243 146/148/244 149/149/244 145/144/245
l 90 91
